<?xml version="1.0" encoding="utf-8"?>
<!-- Generator: Adobe Illustrator 19.2.0, SVG Export Plug-In . SVG Version: 6.00 Build 0)  -->
<svg version="1.1" id="Layer_2" xmlns="http://www.w3.org/2000/svg" xmlns:xlink="http://www.w3.org/1999/xlink" x="0px" y="0px"
	 viewBox="0 0 150 157.5" style="enable-background:new 0 0 150 157.5;" xml:space="preserve">
<style type="text/css">
	.st0{fill:#FFFF00;}
	.st1{fill:#FFFE01;}
	.st2{fill:#FFFD01;}
	.st3{fill:#FFFC02;}
	.st4{fill:#FFFB02;}
	.st5{fill:#FFFA03;}
	.st6{fill:#FFF903;}
	.st7{fill:#FFF804;}
	.st8{fill:#FFF704;}
	.st9{fill:#FFF605;}
	.st10{fill:#FFF505;}
	.st11{fill:#FFF406;}
	.st12{fill:#FFF306;}
	.st13{fill:#FFF207;}
	.st14{fill:#FFF107;}
	.st15{fill:#FFF008;}
	.st16{fill:#FFEF08;}
	.st17{fill:#FFEE09;}
	.st18{fill:#FFED09;}
	.st19{fill:#FFEC0A;}
	.st20{fill:#FFEB0B;}
	.st21{fill:#FFEA0B;}
	.st22{fill:#FFE90C;}
	.st23{fill:#FFE80C;}
	.st24{fill:#FFE70D;}
	.st25{fill:#FFE60D;}
	.st26{fill:#FFE50E;}
	.st27{fill:#FFE40E;}
	.st28{fill:#FFE30F;}
	.st29{fill:#FFE20F;}
	.st30{fill:#FFE110;}
	.st31{fill:#FFE010;}
	.st32{fill:#FFDF11;}
	.st33{fill:#FFDE11;}
	.st34{fill:#FFDD12;}
	.st35{fill:#FFDC12;}
	.st36{fill:#FFDB13;}
	.st37{fill:#FFDA13;}
	.st38{fill:#FFD914;}
	.st39{fill:#FFD814;}
	.st40{fill:#FFD715;}
	.st41{fill:#FFD616;}
	.st42{fill:#FFD516;}
	.st43{fill:#FFD417;}
	.st44{fill:#FFD317;}
	.st45{fill:#FFD218;}
	.st46{fill:#FFD118;}
	.st47{fill:#FFD019;}
	.st48{fill:#FFCF19;}
	.st49{fill:#FFCE1A;}
	.st50{fill:#FFCD1A;}
	.st51{fill:#FFCC1B;}
	.st52{fill:#FFCB1B;}
	.st53{fill:#FFCA1C;}
	.st54{fill:#FFC91C;}
	.st55{fill:#FFC81D;}
	.st56{fill:#FFC71D;}
	.st57{fill:#FFC61E;}
	.st58{fill:#FFC51E;}
	.st59{fill:#FFC41F;}
	.st60{fill:#FFC320;}
	.st61{fill:#FFC220;}
	.st62{fill:#FFC121;}
	.st63{fill:#FFC021;}
	.st64{fill:#FFBF22;}
	.st65{fill:#FFBE22;}
	.st66{fill:#FFBD23;}
	.st67{fill:#FFBC23;}
	.st68{fill:#FFBB24;}
	.st69{fill:#FFBA24;}
	.st70{fill:#FFB925;}
	.st71{fill:#FFB825;}
	.st72{fill:#FFB726;}
	.st73{fill:#FFB626;}
	.st74{fill:#FFB527;}
	.st75{fill:#FFB427;}
	.st76{fill:#FFB328;}
	.st77{fill:#FFB228;}
	.st78{fill:#FFB129;}
	.st79{fill:#FFB02A;}
	.st80{fill:#FFAF2A;}
	.st81{fill:#FFAE2B;}
	.st82{fill:#FFAD2B;}
	.st83{fill:#FFAC2C;}
	.st84{fill:#FFAB2C;}
	.st85{fill:#FFAA2D;}
	.st86{fill:#FFA92D;}
	.st87{fill:#FFA82E;}
	.st88{fill:#FFA72E;}
	.st89{fill:#FFA62F;}
	.st90{fill:#FFA52F;}
	.st91{fill:#FFA430;}
	.st92{fill:#FFA330;}
	.st93{fill:#FFA231;}
	.st94{fill:#FFA131;}
	.st95{fill:#FFA032;}
	.st96{fill:#FF9F32;}
	.st97{fill:#FF9E33;}
	.st98{fill:#FF9D33;}
	.st99{fill:#FF9C34;}
	.st100{fill:#FF9B35;}
	.st101{fill:#FF9A35;}
	.st102{fill:#FF9936;}
	.st103{fill:#FF9836;}
	.st104{fill:#FF9737;}
	.st105{fill:#FF9637;}
	.st106{fill:#FF9538;}
	.st107{fill:#FF9438;}
	.st108{fill:#FF9339;}
	.st109{fill:#FF9239;}
	.st110{fill:#FF913A;}
	.st111{fill:#FF903A;}
	.st112{fill:#FF8F3B;}
	.st113{fill:#FF8E3B;}
	.st114{fill:#FF8D3C;}
	.st115{fill:#FF8C3C;}
	.st116{fill:#FF8B3D;}
	.st117{fill:#FF8A3D;}
	.st118{fill:#FF893E;}
	.st119{fill:#FF883F;}
	.st120{fill:#FF873F;}
	.st121{fill:#FF8640;}
	.st122{fill:#FF8540;}
	.st123{fill:#FF8441;}
	.st124{fill:#FF8341;}
	.st125{fill:#FF8242;}
	.st126{fill:#FF8142;}
	.st127{fill:#FF8043;}
	.st128{fill:#FF7F43;}
	.st129{fill:#FF7E44;}
	.st130{fill:#FF7D44;}
	.st131{fill:#FF7C45;}
	.st132{fill:#FF7B45;}
	.st133{fill:#FF7A46;}
	.st134{fill:#FF7946;}
	.st135{fill:#FF7847;}
	.st136{fill:#FF7747;}
	.st137{fill:#FF7648;}
	.st138{fill:#FF7549;}
	.st139{fill:#FF7449;}
	.st140{fill:#FF734A;}
	.st141{fill:#FF724A;}
	.st142{fill:#FF714B;}
	.st143{fill:#FF704B;}
	.st144{fill:#FF6F4C;}
	.st145{fill:#FF6E4C;}
	.st146{fill:#FF6D4D;}
	.st147{fill:#FF6C4D;}
	.st148{fill:#FF6B4E;}
	.st149{fill:#FF6A4E;}
	.st150{fill:#FF694F;}
	.st151{fill:#FF684F;}
	.st152{fill:#FF6750;}
	.st153{fill:#FF6650;}
	.st154{fill:#FF6551;}
	.st155{fill:#FF6451;}
	.st156{fill:#FF6352;}
	.st157{fill:#FF6253;}
	.st158{fill:#FF6153;}
	.st159{fill:#FF6054;}
	.st160{fill:#FF5F54;}
	.st161{fill:#FF5E55;}
	.st162{fill:#FF5D55;}
	.st163{fill:#FF5C56;}
	.st164{fill:#FF5B56;}
	.st165{fill:#FF5A57;}
	.st166{fill:#FF5957;}
	.st167{fill:#FF5858;}
	.st168{fill:#FF5758;}
	.st169{fill:#FF5659;}
	.st170{fill:#FF5559;}
	.st171{fill:#FF545A;}
	.st172{fill:#FF535A;}
	.st173{fill:#FF525B;}
	.st174{fill:#FF515B;}
	.st175{fill:#FF505C;}
	.st176{fill:#FF4F5C;}
	.st177{fill:#FF4E5D;}
	.st178{fill:#FF4D5E;}
	.st179{fill:#FF4C5E;}
	.st180{fill:#FF4B5F;}
	.st181{fill:#FF4A5F;}
	.st182{fill:#FF4960;}
	.st183{fill:#FF4860;}
	.st184{fill:#FF4761;}
	.st185{fill:#FF4661;}
	.st186{fill:#FF4562;}
	.st187{fill:#FF4462;}
	.st188{fill:#FF4363;}
	.st189{fill:#FF4263;}
	.st190{fill:#FF4164;}
	.st191{fill:#FF4064;}
	.st192{fill:#FF3F65;}
	.st193{fill:#FF3E65;}
	.st194{fill:#FF3D66;}
	.st195{fill:#FF3C66;}
	.st196{fill:#FF3B67;}
	.st197{fill:#FF3A68;}
	.st198{fill:#FF3968;}
	.st199{fill:#FF3869;}
	.st200{fill:#FF3769;}
	.st201{fill:#FF366A;}
	.st202{fill:#FF356A;}
	.st203{fill:#FF346B;}
	.st204{fill:#FF336B;}
	.st205{fill:#FF326C;}
	.st206{fill:#FF316C;}
	.st207{fill:#FF306D;}
	.st208{fill:#FF2F6D;}
	.st209{fill:#FF2E6E;}
	.st210{fill:#FF2D6E;}
	.st211{fill:#FF2C6F;}
	.st212{fill:#FF2B6F;}
	.st213{fill:#FF2A70;}
	.st214{fill:#FF2970;}
	.st215{fill:#FF2871;}
	.st216{fill:#FF2772;}
	.st217{fill:#FF2672;}
	.st218{fill:#FF2573;}
	.st219{fill:#FF2473;}
	.st220{fill:#FF2374;}
	.st221{fill:#FF2274;}
	.st222{fill:#FF2175;}
	.st223{fill:#FF2075;}
	.st224{fill:#FF1F76;}
	.st225{fill:#FF1E76;}
	.st226{fill:#FF1D77;}
	.st227{fill:#FF1C77;}
	.st228{fill:#FF1B78;}
	.st229{fill:#FF1A78;}
	.st230{fill:#FF1979;}
	.st231{fill:#FF1879;}
	.st232{fill:#FF177A;}
	.st233{fill:#FF167A;}
	.st234{fill:#FF157B;}
	.st235{fill:#FF147B;}
	.st236{fill:#FF137C;}
	.st237{fill:#FF127D;}
	.st238{fill:#FF117D;}
	.st239{fill:#FF107E;}
	.st240{fill:#FF0F7E;}
	.st241{fill:#FF0E7F;}
	.st242{fill:#FF0D7F;}
	.st243{fill:#FF0C80;}
	.st244{fill:#FF0B80;}
	.st245{fill:#FF0A81;}
	.st246{fill:#FF0981;}
	.st247{fill:#FF0882;}
	.st248{fill:#FF0782;}
	.st249{fill:#FF0683;}
	.st250{fill:#FF0583;}
	.st251{fill:#FF0484;}
	.st252{fill:#FF0384;}
	.st253{fill:#FF0285;}
	.st254{fill:#FF0185;}
	.st255{fill:#FF0086;}
	.st256{fill:#FE0086;}
	.st257{fill:#FD0087;}
	.st258{fill:#FC0087;}
	.st259{fill:#FB0088;}
	.st260{fill:#FA0088;}
	.st261{fill:#F90089;}
	.st262{fill:#F80089;}
	.st263{fill:#F7008A;}
	.st264{fill:#F6008A;}
	.st265{fill:#F5008B;}
	.st266{fill:#F4008B;}
	.st267{fill:#F3008C;}
	.st268{fill:#F2008C;}
	.st269{fill:#F1008D;}
	.st270{fill:#F0008D;}
	.st271{fill:#EF008E;}
	.st272{fill:#EE008E;}
	.st273{fill:#ED008F;}
	.st274{fill:#EC008F;}
	.st275{fill:#EB008F;}
	.st276{fill:#EA0090;}
	.st277{fill:#E90090;}
	.st278{fill:#E80091;}
	.st279{fill:#E70091;}
	.st280{fill:#E60092;}
	.st281{fill:#E50092;}
	.st282{fill:#E40093;}
	.st283{fill:#E30093;}
	.st284{fill:#E20094;}
	.st285{fill:#E10094;}
	.st286{fill:#E00095;}
	.st287{fill:#DF0095;}
	.st288{fill:#DE0096;}
	.st289{fill:#DD0096;}
	.st290{fill:#DC0097;}
	.st291{fill:#DB0097;}
	.st292{fill:#DA0098;}
	.st293{fill:#D90098;}
	.st294{fill:#D80099;}
	.st295{fill:#D70099;}
	.st296{fill:#D60099;}
	.st297{fill:#D5009A;}
	.st298{fill:#D4009A;}
	.st299{fill:#D3009B;}
	.st300{fill:#D2009B;}
	.st301{fill:#D1009C;}
	.st302{fill:#D0009C;}
	.st303{fill:#CF009D;}
	.st304{fill:#CE009D;}
	.st305{fill:#CD009E;}
	.st306{fill:#CC009E;}
	.st307{fill:#CB009F;}
	.st308{fill:#CA009F;}
	.st309{fill:#C900A0;}
	.st310{fill:#C800A0;}
	.st311{fill:#C700A1;}
	.st312{fill:#C600A1;}
	.st313{fill:#C500A2;}
	.st314{fill:#C400A2;}
	.st315{fill:#C300A2;}
	.st316{fill:#C200A3;}
	.st317{fill:#C100A3;}
	.st318{fill:#C000A4;}
	.st319{fill:#BF00A4;}
	.st320{fill:#BE00A5;}
	.st321{fill:#BD00A5;}
	.st322{fill:#BC00A6;}
	.st323{fill:#BB00A6;}
	.st324{fill:#BA00A7;}
	.st325{fill:#B900A7;}
	.st326{fill:#B800A8;}
	.st327{fill:#B700A8;}
	.st328{fill:#B600A9;}
	.st329{fill:#B500A9;}
	.st330{fill:#B400AA;}
	.st331{fill:#B300AA;}
	.st332{fill:#B200AB;}
	.st333{fill:#B100AB;}
	.st334{fill:#B000AB;}
	.st335{fill:#AF00AC;}
	.st336{fill:#AE00AC;}
	.st337{fill:#AD00AD;}
	.st338{fill:#AC00AD;}
	.st339{fill:#AB00AE;}
	.st340{fill:#AA00AE;}
	.st341{fill:#A900AF;}
	.st342{fill:#A800AF;}
	.st343{fill:#A700B0;}
	.st344{fill:#A600B0;}
	.st345{fill:#A500B1;}
	.st346{fill:#A400B1;}
	.st347{fill:#A300B2;}
	.st348{fill:#A200B2;}
	.st349{fill:#A100B3;}
	.st350{fill:#A000B3;}
	.st351{fill:#9F00B4;}
	.st352{fill:#9E00B4;}
	.st353{fill:#9D00B5;}
	.st354{fill:#9C00B5;}
	.st355{fill:#9B00B5;}
	.st356{fill:#9A00B6;}
	.st357{fill:#9900B6;}
	.st358{fill:#9800B7;}
	.st359{fill:#9700B7;}
	.st360{fill:#9600B8;}
	.st361{fill:#9500B8;}
	.st362{fill:#9400B9;}
	.st363{fill:#9300B9;}
	.st364{fill:#9200BA;}
	.st365{fill:#9100BA;}
	.st366{fill:#9000BB;}
	.st367{fill:#8F00BB;}
	.st368{fill:#8E00BC;}
	.st369{fill:#8D00BC;}
	.st370{fill:#8C00BD;}
	.st371{fill:#8B00BD;}
	.st372{fill:#8A00BE;}
	.st373{fill:#8900BE;}
	.st374{fill:#8800BE;}
	.st375{fill:#8700BF;}
	.st376{fill:#8600BF;}
	.st377{fill:#8500C0;}
	.st378{fill:#8400C0;}
	.st379{fill:#8300C1;}
	.st380{fill:#8200C1;}
	.st381{fill:#8100C2;}
	.st382{fill:#8000C2;}
	.st383{fill:#7F00C3;}
	.st384{fill:#7E00C3;}
	.st385{fill:#7D00C4;}
	.st386{fill:#7C00C4;}
	.st387{fill:#7B00C5;}
	.st388{fill:#7A00C5;}
	.st389{fill:#7900C6;}
	.st390{fill:#7800C6;}
	.st391{fill:#7700C7;}
	.st392{fill:#7600C7;}
	.st393{fill:#7500C7;}
	.st394{fill:#7400C8;}
	.st395{fill:#7300C8;}
	.st396{fill:#7200C9;}
	.st397{fill:#7100C9;}
	.st398{fill:#7000CA;}
	.st399{fill:#6F00CA;}
	.st400{fill:#6E00CB;}
	.st401{fill:#6D00CB;}
	.st402{fill:#6C00CC;}
	.st403{fill:#6B00CC;}
	.st404{fill:#6A00CD;}
	.st405{fill:#6900CD;}
	.st406{fill:#6800CE;}
	.st407{fill:#6700CE;}
	.st408{fill:#6600CF;}
	.st409{fill:#6500CF;}
	.st410{fill:#6400D0;}
	.st411{fill:#6300D0;}
	.st412{fill:#6200D0;}
	.st413{fill:#6100D1;}
	.st414{fill:#6000D1;}
	.st415{fill:#5F00D2;}
	.st416{fill:#5E00D2;}
	.st417{fill:#5D00D3;}
	.st418{fill:#5C00D3;}
	.st419{fill:#5B00D4;}
	.st420{fill:#5A00D4;}
	.st421{fill:#5900D5;}
	.st422{fill:#5800D5;}
	.st423{fill:#5700D6;}
	.st424{fill:#5600D6;}
	.st425{fill:#5500D7;}
	.st426{fill:#5400D7;}
	.st427{fill:#5300D8;}
	.st428{fill:#5200D8;}
	.st429{fill:#5100D9;}
	.st430{fill:#5000D9;}
	.st431{fill:#4F00DA;}
	.st432{fill:#4E00DA;}
	.st433{fill:#4D00DA;}
	.st434{fill:#4C00DB;}
	.st435{fill:#4B00DB;}
	.st436{fill:#4A00DC;}
	.st437{fill:#4900DC;}
	.st438{fill:#4800DD;}
	.st439{fill:#4700DD;}
	.st440{fill:#4600DE;}
	.st441{fill:#4500DE;}
	.st442{fill:#4400DF;}
	.st443{fill:#4300DF;}
	.st444{fill:#4200E0;}
	.st445{fill:#4100E0;}
	.st446{fill:#4000E1;}
	.st447{fill:#3F00E1;}
	.st448{fill:#3E00E2;}
	.st449{fill:#3D00E2;}
	.st450{fill:#3C00E3;}
	.st451{fill:#3B00E3;}
	.st452{fill:#3A00E3;}
	.st453{fill:#3900E4;}
	.st454{fill:#3800E4;}
	.st455{fill:#3700E5;}
	.st456{fill:#3600E5;}
	.st457{fill:#3500E6;}
	.st458{fill:#3400E6;}
	.st459{fill:#3300E7;}
	.st460{fill:#3200E7;}
	.st461{fill:#3100E8;}
	.st462{fill:#3000E8;}
	.st463{fill:#2F00E9;}
	.st464{fill:#2E00E9;}
	.st465{fill:#2D00EA;}
	.st466{fill:#2C00EA;}
	.st467{fill:#2B00EB;}
	.st468{fill:#2A00EB;}
	.st469{fill:#2900EC;}
	.st470{fill:#2800EC;}
	.st471{fill:#2700EC;}
	.st472{fill:#2600ED;}
	.st473{fill:#2500ED;}
	.st474{fill:#2400EE;}
	.st475{fill:#2300EE;}
	.st476{fill:#2200EF;}
	.st477{fill:#2100EF;}
	.st478{fill:#2000F0;}
	.st479{fill:#1F00F0;}
	.st480{fill:#1E00F1;}
	.st481{fill:#1D00F1;}
	.st482{fill:#1C00F2;}
	.st483{fill:#1B00F2;}
	.st484{fill:#1A00F3;}
	.st485{fill:#1900F3;}
	.st486{fill:#1800F4;}
	.st487{fill:#1700F4;}
	.st488{fill:#1600F5;}
	.st489{fill:#1500F5;}
	.st490{fill:#1400F6;}
	.st491{fill:#1300F6;}
	.st492{fill:#1200F6;}
	.st493{fill:#1100F7;}
	.st494{fill:#1000F7;}
	.st495{fill:#0F00F8;}
	.st496{fill:#0E00F8;}
	.st497{fill:#0D00F9;}
	.st498{fill:#0C00F9;}
	.st499{fill:#0B00FA;}
	.st500{fill:#0A00FA;}
	.st501{fill:#0900FB;}
	.st502{fill:#0800FB;}
	.st503{fill:#0700FC;}
	.st504{fill:#0600FC;}
	.st505{fill:#0500FD;}
	.st506{fill:#0400FD;}
	.st507{fill:#0300FE;}
	.st508{fill:#0200FE;}
	.st509{fill:#0100FF;}
	.st510{fill:#0000FF;}
	.st511{fill:#FFFFFF;}
</style>
<g>
	<g>
		<circle class="st0" cx="52.5" cy="30" r="30"/>
		<circle class="st1" cx="52.7" cy="30.2" r="30.1"/>
		<circle class="st2" cx="52.9" cy="30.4" r="30.1"/>
		<circle class="st3" cx="53.1" cy="30.5" r="30.2"/>
		<circle class="st4" cx="53.3" cy="30.7" r="30.2"/>
		<circle class="st5" cx="53.5" cy="30.9" r="30.3"/>
		<circle class="st6" cx="53.7" cy="31.1" r="30.4"/>
		<circle class="st7" cx="53.9" cy="31.2" r="30.4"/>
		<circle class="st8" cx="54.1" cy="31.4" r="30.5"/>
		<circle class="st9" cx="54.4" cy="31.6" r="30.5"/>
		<circle class="st10" cx="54.6" cy="31.8" r="30.6"/>
		<circle class="st11" cx="54.8" cy="31.9" r="30.6"/>
		<circle class="st12" cx="55" cy="32.1" r="30.7"/>
		<circle class="st13" cx="55.2" cy="32.3" r="30.8"/>
		<circle class="st14" cx="55.4" cy="32.5" r="30.8"/>
		<circle class="st15" cx="55.6" cy="32.6" r="30.9"/>
		<circle class="st16" cx="55.8" cy="32.8" r="30.9"/>
		<circle class="st17" cx="56" cy="33" r="31"/>
		<circle class="st18" cx="56.2" cy="33.2" r="31.1"/>
		<circle class="st19" cx="56.4" cy="33.4" r="31.1"/>
		<circle class="st20" cx="56.6" cy="33.5" r="31.2"/>
		<circle class="st21" cx="56.8" cy="33.7" r="31.2"/>
		<circle class="st22" cx="57" cy="33.9" r="31.3"/>
		<circle class="st23" cx="57.2" cy="34.1" r="31.4"/>
		<circle class="st24" cx="57.4" cy="34.2" r="31.4"/>
		<circle class="st25" cx="57.6" cy="34.4" r="31.5"/>
		<circle class="st26" cx="57.9" cy="34.6" r="31.5"/>
		<circle class="st27" cx="58.1" cy="34.8" r="31.6"/>
		<circle class="st28" cx="58.3" cy="34.9" r="31.6"/>
		<circle class="st29" cx="58.5" cy="35.1" r="31.7"/>
		<circle class="st30" cx="58.7" cy="35.3" r="31.8"/>
		<circle class="st31" cx="58.9" cy="35.5" r="31.8"/>
		<circle class="st32" cx="59.1" cy="35.6" r="31.9"/>
		<circle class="st33" cx="59.3" cy="35.8" r="31.9"/>
		<circle class="st34" cx="59.5" cy="36" r="32"/>
		<circle class="st35" cx="59.7" cy="36.2" r="32.1"/>
		<circle class="st36" cx="59.9" cy="36.4" r="32.1"/>
		<circle class="st37" cx="60.1" cy="36.5" r="32.2"/>
		<circle class="st38" cx="60.3" cy="36.7" r="32.2"/>
		<circle class="st39" cx="60.5" cy="36.9" r="32.3"/>
		<circle class="st40" cx="60.7" cy="37.1" r="32.4"/>
		<circle class="st41" cx="60.9" cy="37.2" r="32.4"/>
		<circle class="st42" cx="61.1" cy="37.4" r="32.5"/>
		<circle class="st43" cx="61.4" cy="37.6" r="32.5"/>
		<circle class="st44" cx="61.6" cy="37.8" r="32.6"/>
		<circle class="st45" cx="61.8" cy="37.9" r="32.6"/>
		<circle class="st46" cx="62" cy="38.1" r="32.7"/>
		<circle class="st47" cx="62.2" cy="38.3" r="32.8"/>
		<circle class="st48" cx="62.4" cy="38.5" r="32.8"/>
		<circle class="st49" cx="62.6" cy="38.6" r="32.9"/>
		<circle class="st50" cx="62.8" cy="38.8" r="32.9"/>
		<circle class="st51" cx="63" cy="39" r="33"/>
		<circle class="st52" cx="63.2" cy="39.2" r="33.1"/>
		<circle class="st53" cx="63.4" cy="39.4" r="33.1"/>
		<circle class="st54" cx="63.6" cy="39.5" r="33.2"/>
		<circle class="st55" cx="63.8" cy="39.7" r="33.2"/>
		<circle class="st56" cx="64" cy="39.9" r="33.3"/>
		<circle class="st57" cx="64.2" cy="40.1" r="33.4"/>
		<circle class="st58" cx="64.4" cy="40.2" r="33.4"/>
		<circle class="st59" cx="64.6" cy="40.4" r="33.5"/>
		<circle class="st60" cx="64.9" cy="40.6" r="33.5"/>
		<circle class="st61" cx="65.1" cy="40.8" r="33.6"/>
		<circle class="st62" cx="65.3" cy="40.9" r="33.6"/>
		<circle class="st63" cx="65.5" cy="41.1" r="33.7"/>
		<circle class="st64" cx="65.7" cy="41.3" r="33.8"/>
		<circle class="st65" cx="65.9" cy="41.5" r="33.8"/>
		<circle class="st66" cx="66.1" cy="41.6" r="33.9"/>
		<circle class="st67" cx="66.3" cy="41.8" r="33.9"/>
		<circle class="st68" cx="66.5" cy="42" r="34"/>
		<circle class="st69" cx="66.7" cy="42.2" r="34.1"/>
		<circle class="st70" cx="66.9" cy="42.4" r="34.1"/>
		<circle class="st71" cx="67.1" cy="42.5" r="34.2"/>
		<circle class="st72" cx="67.3" cy="42.7" r="34.2"/>
		<circle class="st73" cx="67.5" cy="42.9" r="34.3"/>
		<circle class="st74" cx="67.7" cy="43.1" r="34.4"/>
		<circle class="st75" cx="67.9" cy="43.2" r="34.4"/>
		<circle class="st76" cx="68.1" cy="43.4" r="34.5"/>
		<circle class="st77" cx="68.4" cy="43.6" r="34.5"/>
		<circle class="st78" cx="68.6" cy="43.8" r="34.6"/>
		<circle class="st79" cx="68.8" cy="43.9" r="34.6"/>
		<circle class="st80" cx="69" cy="44.1" r="34.7"/>
		<circle class="st81" cx="69.2" cy="44.3" r="34.8"/>
		<circle class="st82" cx="69.4" cy="44.5" r="34.8"/>
		<circle class="st83" cx="69.6" cy="44.6" r="34.9"/>
		<circle class="st84" cx="69.8" cy="44.8" r="34.9"/>
		<circle class="st85" cx="70" cy="45" r="35"/>
		<circle class="st86" cx="70.2" cy="45.2" r="35.1"/>
		<circle class="st87" cx="70.4" cy="45.4" r="35.1"/>
		<circle class="st88" cx="70.6" cy="45.5" r="35.2"/>
		<circle class="st89" cx="70.8" cy="45.7" r="35.2"/>
		<circle class="st90" cx="71" cy="45.9" r="35.3"/>
		<circle class="st91" cx="71.2" cy="46.1" r="35.4"/>
		<circle class="st92" cx="71.4" cy="46.2" r="35.4"/>
		<circle class="st93" cx="71.6" cy="46.4" r="35.5"/>
		<circle class="st94" cx="71.9" cy="46.6" r="35.5"/>
		<circle class="st95" cx="72.1" cy="46.8" r="35.6"/>
		<circle class="st96" cx="72.3" cy="46.9" r="35.6"/>
		<circle class="st97" cx="72.5" cy="47.1" r="35.7"/>
		<circle class="st98" cx="72.7" cy="47.3" r="35.8"/>
		<circle class="st99" cx="72.9" cy="47.5" r="35.8"/>
		<circle class="st100" cx="73.1" cy="47.6" r="35.9"/>
		<circle class="st101" cx="73.3" cy="47.8" r="35.9"/>
		<circle class="st102" cx="73.5" cy="48" r="36"/>
		<circle class="st103" cx="73.7" cy="48.2" r="36.1"/>
		<circle class="st104" cx="73.9" cy="48.4" r="36.1"/>
		<circle class="st105" cx="74.1" cy="48.5" r="36.2"/>
		<circle class="st106" cx="74.3" cy="48.7" r="36.2"/>
		<circle class="st107" cx="74.5" cy="48.9" r="36.3"/>
		<circle class="st108" cx="74.7" cy="49.1" r="36.4"/>
		<circle class="st109" cx="74.9" cy="49.2" r="36.4"/>
		<circle class="st110" cx="75.1" cy="49.4" r="36.5"/>
		<circle class="st111" cx="75.4" cy="49.6" r="36.5"/>
		<circle class="st112" cx="75.6" cy="49.8" r="36.6"/>
		<circle class="st113" cx="75.8" cy="49.9" r="36.6"/>
		<circle class="st114" cx="76" cy="50.1" r="36.7"/>
		<circle class="st115" cx="76.2" cy="50.3" r="36.8"/>
		<circle class="st116" cx="76.4" cy="50.5" r="36.8"/>
		<circle class="st117" cx="76.6" cy="50.6" r="36.9"/>
		<circle class="st118" cx="76.8" cy="50.8" r="36.9"/>
		<circle class="st119" cx="77" cy="51" r="37"/>
		<circle class="st120" cx="77.2" cy="51.2" r="37.1"/>
		<circle class="st121" cx="77.4" cy="51.4" r="37.1"/>
		<circle class="st122" cx="77.6" cy="51.5" r="37.2"/>
		<circle class="st123" cx="77.8" cy="51.7" r="37.2"/>
		<circle class="st124" cx="78" cy="51.9" r="37.3"/>
		<circle class="st125" cx="78.2" cy="52.1" r="37.4"/>
		<circle class="st126" cx="78.4" cy="52.2" r="37.4"/>
		<circle class="st127" cx="78.6" cy="52.4" r="37.5"/>
		<circle class="st128" cx="78.9" cy="52.6" r="37.5"/>
		<circle class="st129" cx="79.1" cy="52.8" r="37.6"/>
		<circle class="st130" cx="79.3" cy="52.9" r="37.6"/>
		<circle class="st131" cx="79.5" cy="53.1" r="37.7"/>
		<circle class="st132" cx="79.7" cy="53.3" r="37.8"/>
		<circle class="st133" cx="79.9" cy="53.5" r="37.8"/>
		<circle class="st134" cx="80.1" cy="53.6" r="37.9"/>
		<circle class="st135" cx="80.3" cy="53.8" r="37.9"/>
		<circle class="st136" cx="80.5" cy="54" r="38"/>
		<circle class="st137" cx="80.7" cy="54.2" r="38.1"/>
		<circle class="st138" cx="80.9" cy="54.4" r="38.1"/>
		<circle class="st139" cx="81.1" cy="54.5" r="38.2"/>
		<circle class="st140" cx="81.3" cy="54.7" r="38.2"/>
		<circle class="st141" cx="81.5" cy="54.9" r="38.3"/>
		<circle class="st142" cx="81.7" cy="55.1" r="38.4"/>
		<circle class="st143" cx="81.9" cy="55.2" r="38.4"/>
		<circle class="st144" cx="82.1" cy="55.4" r="38.5"/>
		<circle class="st145" cx="82.4" cy="55.6" r="38.5"/>
		<circle class="st146" cx="82.6" cy="55.8" r="38.6"/>
		<circle class="st147" cx="82.8" cy="55.9" r="38.6"/>
		<circle class="st148" cx="83" cy="56.1" r="38.7"/>
		<circle class="st149" cx="83.2" cy="56.3" r="38.8"/>
		<circle class="st150" cx="83.4" cy="56.5" r="38.8"/>
		<circle class="st151" cx="83.6" cy="56.6" r="38.9"/>
		<circle class="st152" cx="83.8" cy="56.8" r="38.9"/>
		<circle class="st153" cx="84" cy="57" r="39"/>
		<circle class="st154" cx="84.2" cy="57.2" r="39.1"/>
		<circle class="st155" cx="84.4" cy="57.4" r="39.1"/>
		<circle class="st156" cx="84.6" cy="57.5" r="39.2"/>
		<circle class="st157" cx="84.8" cy="57.7" r="39.2"/>
		<circle class="st158" cx="85" cy="57.9" r="39.3"/>
		<circle class="st159" cx="85.2" cy="58.1" r="39.4"/>
		<circle class="st160" cx="85.4" cy="58.2" r="39.4"/>
		<circle class="st161" cx="85.6" cy="58.4" r="39.5"/>
		<circle class="st162" cx="85.9" cy="58.6" r="39.5"/>
		<circle class="st163" cx="86.1" cy="58.8" r="39.6"/>
		<circle class="st164" cx="86.3" cy="58.9" r="39.6"/>
		<circle class="st165" cx="86.5" cy="59.1" r="39.7"/>
		<circle class="st166" cx="86.7" cy="59.3" r="39.8"/>
		<circle class="st167" cx="86.9" cy="59.5" r="39.8"/>
		<circle class="st168" cx="87.1" cy="59.6" r="39.9"/>
		<circle class="st169" cx="87.3" cy="59.8" r="39.9"/>
		<circle class="st170" cx="87.5" cy="60" r="40"/>
		<circle class="st171" cx="87.7" cy="60.2" r="40.1"/>
		<circle class="st172" cx="87.9" cy="60.4" r="40.1"/>
		<circle class="st173" cx="88.1" cy="60.5" r="40.2"/>
		<circle class="st174" cx="88.3" cy="60.7" r="40.2"/>
		<circle class="st175" cx="88.5" cy="60.9" r="40.3"/>
		<circle class="st176" cx="88.7" cy="61.1" r="40.4"/>
		<circle class="st177" cx="88.9" cy="61.2" r="40.4"/>
		<circle class="st178" cx="89.1" cy="61.4" r="40.5"/>
		<circle class="st179" cx="89.4" cy="61.6" r="40.5"/>
		<circle class="st180" cx="89.6" cy="61.8" r="40.6"/>
		<circle class="st181" cx="89.8" cy="61.9" r="40.6"/>
		<circle class="st182" cx="90" cy="62.1" r="40.7"/>
		<circle class="st183" cx="90.2" cy="62.3" r="40.8"/>
		<circle class="st184" cx="90.4" cy="62.5" r="40.8"/>
		<circle class="st185" cx="90.6" cy="62.6" r="40.9"/>
		<circle class="st186" cx="90.8" cy="62.8" r="40.9"/>
		<circle class="st187" cx="91" cy="63" r="41"/>
		<circle class="st188" cx="91.2" cy="63.2" r="41.1"/>
		<circle class="st189" cx="91.4" cy="63.4" r="41.1"/>
		<circle class="st190" cx="91.6" cy="63.5" r="41.2"/>
		<circle class="st191" cx="91.8" cy="63.7" r="41.2"/>
		<circle class="st192" cx="92" cy="63.9" r="41.3"/>
		<circle class="st193" cx="92.2" cy="64.1" r="41.4"/>
		<circle class="st194" cx="92.4" cy="64.2" r="41.4"/>
		<circle class="st195" cx="92.6" cy="64.4" r="41.5"/>
		<circle class="st196" cx="92.9" cy="64.6" r="41.5"/>
		<circle class="st197" cx="93.1" cy="64.8" r="41.6"/>
		<circle class="st198" cx="93.3" cy="64.9" r="41.6"/>
		<circle class="st199" cx="93.5" cy="65.1" r="41.7"/>
		<circle class="st200" cx="93.7" cy="65.3" r="41.8"/>
		<circle class="st201" cx="93.9" cy="65.5" r="41.8"/>
		<circle class="st202" cx="94.1" cy="65.6" r="41.9"/>
		<circle class="st203" cx="94.3" cy="65.8" r="41.9"/>
		<circle class="st204" cx="94.5" cy="66" r="42"/>
		<circle class="st205" cx="94.7" cy="66.2" r="42.1"/>
		<circle class="st206" cx="94.9" cy="66.4" r="42.1"/>
		<circle class="st207" cx="95.1" cy="66.5" r="42.2"/>
		<circle class="st208" cx="95.3" cy="66.7" r="42.2"/>
		<circle class="st209" cx="95.5" cy="66.9" r="42.3"/>
		<circle class="st210" cx="95.7" cy="67.1" r="42.4"/>
		<circle class="st211" cx="95.9" cy="67.2" r="42.4"/>
		<circle class="st212" cx="96.1" cy="67.4" r="42.5"/>
		<circle class="st213" cx="96.4" cy="67.6" r="42.5"/>
		<circle class="st214" cx="96.6" cy="67.8" r="42.6"/>
		<circle class="st215" cx="96.8" cy="67.9" r="42.6"/>
		<circle class="st216" cx="97" cy="68.1" r="42.7"/>
		<circle class="st217" cx="97.2" cy="68.3" r="42.8"/>
		<circle class="st218" cx="97.4" cy="68.5" r="42.8"/>
		<circle class="st219" cx="97.6" cy="68.6" r="42.9"/>
		<circle class="st220" cx="97.8" cy="68.8" r="42.9"/>
		<circle class="st221" cx="98" cy="69" r="43"/>
		<circle class="st222" cx="98.2" cy="69.2" r="43.1"/>
		<circle class="st223" cx="98.4" cy="69.4" r="43.1"/>
		<circle class="st224" cx="98.6" cy="69.5" r="43.2"/>
		<circle class="st225" cx="98.8" cy="69.7" r="43.2"/>
		<circle class="st226" cx="99" cy="69.9" r="43.3"/>
		<circle class="st227" cx="99.2" cy="70.1" r="43.4"/>
		<circle class="st228" cx="99.4" cy="70.2" r="43.4"/>
		<circle class="st229" cx="99.6" cy="70.4" r="43.5"/>
		<circle class="st230" cx="99.9" cy="70.6" r="43.5"/>
		<circle class="st231" cx="100.1" cy="70.8" r="43.6"/>
		<circle class="st232" cx="100.3" cy="70.9" r="43.6"/>
		<circle class="st233" cx="100.5" cy="71.1" r="43.7"/>
		<circle class="st234" cx="100.7" cy="71.3" r="43.8"/>
		<circle class="st235" cx="100.9" cy="71.5" r="43.8"/>
		<circle class="st236" cx="101.1" cy="71.6" r="43.9"/>
		<circle class="st237" cx="101.3" cy="71.8" r="43.9"/>
		<circle class="st238" cx="101.5" cy="72" r="44"/>
		<circle class="st239" cx="101.7" cy="72.2" r="44.1"/>
		<circle class="st240" cx="101.9" cy="72.4" r="44.1"/>
		<circle class="st241" cx="102.1" cy="72.5" r="44.2"/>
		<circle class="st242" cx="102.3" cy="72.7" r="44.2"/>
		<circle class="st243" cx="102.5" cy="72.9" r="44.3"/>
		<circle class="st244" cx="102.7" cy="73.1" r="44.4"/>
		<circle class="st245" cx="102.9" cy="73.2" r="44.4"/>
		<circle class="st246" cx="103.1" cy="73.4" r="44.5"/>
		<circle class="st247" cx="103.4" cy="73.6" r="44.5"/>
		<circle class="st248" cx="103.6" cy="73.8" r="44.6"/>
		<circle class="st249" cx="103.8" cy="73.9" r="44.6"/>
		<circle class="st250" cx="104" cy="74.1" r="44.7"/>
		<circle class="st251" cx="104.2" cy="74.3" r="44.8"/>
		<circle class="st252" cx="104.4" cy="74.5" r="44.8"/>
		<circle class="st253" cx="104.6" cy="74.6" r="44.9"/>
		<circle class="st254" cx="104.8" cy="74.8" r="44.9"/>
		<circle class="st255" cx="105" cy="75" r="45"/>
		<circle class="st256" cx="104.8" cy="75.1" r="45.1"/>
		<circle class="st257" cx="104.6" cy="75.2" r="45.1"/>
		<circle class="st258" cx="104.5" cy="75.3" r="45.2"/>
		<circle class="st259" cx="104.3" cy="75.4" r="45.2"/>
		<circle class="st260" cx="104.1" cy="75.4" r="45.3"/>
		<circle class="st261" cx="103.9" cy="75.5" r="45.4"/>
		<circle class="st262" cx="103.8" cy="75.6" r="45.4"/>
		<circle class="st263" cx="103.6" cy="75.7" r="45.5"/>
		<circle class="st264" cx="103.4" cy="75.8" r="45.5"/>
		<circle class="st265" cx="103.2" cy="75.9" r="45.6"/>
		<circle class="st266" cx="103.1" cy="76" r="45.6"/>
		<circle class="st267" cx="102.9" cy="76.1" r="45.7"/>
		<circle class="st268" cx="102.7" cy="76.1" r="45.8"/>
		<circle class="st269" cx="102.5" cy="76.2" r="45.8"/>
		<circle class="st270" cx="102.4" cy="76.3" r="45.9"/>
		<circle class="st271" cx="102.2" cy="76.4" r="45.9"/>
		<circle class="st272" cx="102" cy="76.5" r="46"/>
		<circle class="st273" cx="101.8" cy="76.6" r="46.1"/>
		<circle class="st274" cx="101.6" cy="76.7" r="46.1"/>
		<circle class="st275" cx="101.5" cy="76.8" r="46.2"/>
		<circle class="st276" cx="101.3" cy="76.9" r="46.2"/>
		<circle class="st277" cx="101.1" cy="76.9" r="46.3"/>
		<circle class="st278" cx="100.9" cy="77" r="46.4"/>
		<circle class="st279" cx="100.8" cy="77.1" r="46.4"/>
		<circle class="st280" cx="100.6" cy="77.2" r="46.5"/>
		<circle class="st281" cx="100.4" cy="77.3" r="46.5"/>
		<circle class="st282" cx="100.2" cy="77.4" r="46.6"/>
		<circle class="st283" cx="100.1" cy="77.5" r="46.6"/>
		<circle class="st284" cx="99.9" cy="77.6" r="46.7"/>
		<circle class="st285" cx="99.7" cy="77.6" r="46.8"/>
		<circle class="st286" cx="99.5" cy="77.7" r="46.8"/>
		<circle class="st287" cx="99.4" cy="77.8" r="46.9"/>
		<circle class="st288" cx="99.2" cy="77.9" r="46.9"/>
		<circle class="st289" cx="99" cy="78" r="47"/>
		<circle class="st290" cx="98.8" cy="78.1" r="47.1"/>
		<circle class="st291" cx="98.6" cy="78.2" r="47.1"/>
		<circle class="st292" cx="98.5" cy="78.3" r="47.2"/>
		<circle class="st293" cx="98.3" cy="78.4" r="47.2"/>
		<circle class="st294" cx="98.1" cy="78.4" r="47.3"/>
		<circle class="st295" cx="97.9" cy="78.5" r="47.4"/>
		<circle class="st296" cx="97.8" cy="78.6" r="47.4"/>
		<circle class="st297" cx="97.6" cy="78.7" r="47.5"/>
		<circle class="st298" cx="97.4" cy="78.8" r="47.5"/>
		<circle class="st299" cx="97.2" cy="78.9" r="47.6"/>
		<circle class="st300" cx="97.1" cy="79" r="47.6"/>
		<circle class="st301" cx="96.9" cy="79.1" r="47.7"/>
		<circle class="st302" cx="96.7" cy="79.1" r="47.8"/>
		<circle class="st303" cx="96.5" cy="79.2" r="47.8"/>
		<circle class="st304" cx="96.4" cy="79.3" r="47.9"/>
		<circle class="st305" cx="96.2" cy="79.4" r="47.9"/>
		<circle class="st306" cx="96" cy="79.5" r="48"/>
		<circle class="st307" cx="95.8" cy="79.6" r="48.1"/>
		<circle class="st308" cx="95.6" cy="79.7" r="48.1"/>
		<circle class="st309" cx="95.5" cy="79.8" r="48.2"/>
		<circle class="st310" cx="95.3" cy="79.9" r="48.2"/>
		<circle class="st311" cx="95.1" cy="79.9" r="48.3"/>
		<circle class="st312" cx="94.9" cy="80" r="48.4"/>
		<circle class="st313" cx="94.8" cy="80.1" r="48.4"/>
		<circle class="st314" cx="94.6" cy="80.2" r="48.5"/>
		<circle class="st315" cx="94.4" cy="80.3" r="48.5"/>
		<circle class="st316" cx="94.2" cy="80.4" r="48.6"/>
		<circle class="st317" cx="94.1" cy="80.5" r="48.6"/>
		<circle class="st318" cx="93.9" cy="80.6" r="48.7"/>
		<circle class="st319" cx="93.7" cy="80.6" r="48.8"/>
		<circle class="st320" cx="93.5" cy="80.7" r="48.8"/>
		<circle class="st321" cx="93.4" cy="80.8" r="48.9"/>
		<circle class="st322" cx="93.2" cy="80.9" r="48.9"/>
		<circle class="st323" cx="93" cy="81" r="49"/>
		<circle class="st324" cx="92.8" cy="81.1" r="49.1"/>
		<circle class="st325" cx="92.6" cy="81.2" r="49.1"/>
		<circle class="st326" cx="92.5" cy="81.3" r="49.2"/>
		<circle class="st327" cx="92.3" cy="81.4" r="49.2"/>
		<circle class="st328" cx="92.1" cy="81.4" r="49.3"/>
		<circle class="st329" cx="91.9" cy="81.5" r="49.4"/>
		<circle class="st330" cx="91.8" cy="81.6" r="49.4"/>
		<circle class="st331" cx="91.6" cy="81.7" r="49.5"/>
		<circle class="st332" cx="91.4" cy="81.8" r="49.5"/>
		<circle class="st333" cx="91.2" cy="81.9" r="49.6"/>
		<circle class="st334" cx="91.1" cy="82" r="49.6"/>
		<circle class="st335" cx="90.9" cy="82.1" r="49.7"/>
		<circle class="st336" cx="90.7" cy="82.1" r="49.8"/>
		<circle class="st337" cx="90.5" cy="82.2" r="49.8"/>
		<circle class="st338" cx="90.4" cy="82.3" r="49.9"/>
		<circle class="st339" cx="90.2" cy="82.4" r="49.9"/>
		<circle class="st340" cx="90" cy="82.5" r="50"/>
		<circle class="st341" cx="89.8" cy="82.6" r="50.1"/>
		<circle class="st342" cx="89.6" cy="82.7" r="50.1"/>
		<circle class="st343" cx="89.5" cy="82.8" r="50.2"/>
		<circle class="st344" cx="89.3" cy="82.9" r="50.2"/>
		<circle class="st345" cx="89.1" cy="82.9" r="50.3"/>
		<circle class="st346" cx="88.9" cy="83" r="50.4"/>
		<circle class="st347" cx="88.8" cy="83.1" r="50.4"/>
		<circle class="st348" cx="88.6" cy="83.2" r="50.5"/>
		<circle class="st349" cx="88.4" cy="83.3" r="50.5"/>
		<circle class="st350" cx="88.2" cy="83.4" r="50.6"/>
		<circle class="st351" cx="88.1" cy="83.5" r="50.6"/>
		<circle class="st352" cx="87.9" cy="83.6" r="50.7"/>
		<circle class="st353" cx="87.7" cy="83.6" r="50.8"/>
		<circle class="st354" cx="87.5" cy="83.7" r="50.8"/>
		<circle class="st355" cx="87.4" cy="83.8" r="50.9"/>
		<circle class="st356" cx="87.2" cy="83.9" r="50.9"/>
		<circle class="st357" cx="87" cy="84" r="51"/>
		<circle class="st358" cx="86.8" cy="84.1" r="51.1"/>
		<circle class="st359" cx="86.6" cy="84.2" r="51.1"/>
		<circle class="st360" cx="86.5" cy="84.3" r="51.2"/>
		<circle class="st361" cx="86.3" cy="84.4" r="51.2"/>
		<circle class="st362" cx="86.1" cy="84.4" r="51.3"/>
		<circle class="st363" cx="85.9" cy="84.5" r="51.4"/>
		<circle class="st364" cx="85.8" cy="84.6" r="51.4"/>
		<circle class="st365" cx="85.6" cy="84.7" r="51.5"/>
		<circle class="st366" cx="85.4" cy="84.8" r="51.5"/>
		<circle class="st367" cx="85.2" cy="84.9" r="51.6"/>
		<circle class="st368" cx="85.1" cy="85" r="51.6"/>
		<circle class="st369" cx="84.9" cy="85.1" r="51.7"/>
		<circle class="st370" cx="84.7" cy="85.1" r="51.8"/>
		<circle class="st371" cx="84.5" cy="85.2" r="51.8"/>
		<circle class="st372" cx="84.4" cy="85.3" r="51.9"/>
		<circle class="st373" cx="84.2" cy="85.4" r="51.9"/>
		<circle class="st374" cx="84" cy="85.5" r="52"/>
		<circle class="st375" cx="83.8" cy="85.6" r="52.1"/>
		<circle class="st376" cx="83.6" cy="85.7" r="52.1"/>
		<circle class="st377" cx="83.5" cy="85.8" r="52.2"/>
		<circle class="st378" cx="83.3" cy="85.9" r="52.2"/>
		<circle class="st379" cx="83.1" cy="85.9" r="52.3"/>
		<circle class="st380" cx="82.9" cy="86" r="52.4"/>
		<circle class="st381" cx="82.8" cy="86.1" r="52.4"/>
		<circle class="st382" cx="82.6" cy="86.2" r="52.5"/>
		<circle class="st383" cx="82.4" cy="86.3" r="52.5"/>
		<circle class="st384" cx="82.2" cy="86.4" r="52.6"/>
		<circle class="st385" cx="82.1" cy="86.5" r="52.6"/>
		<circle class="st386" cx="81.9" cy="86.6" r="52.7"/>
		<circle class="st387" cx="81.7" cy="86.6" r="52.8"/>
		<circle class="st388" cx="81.5" cy="86.7" r="52.8"/>
		<circle class="st389" cx="81.4" cy="86.8" r="52.9"/>
		<circle class="st390" cx="81.2" cy="86.9" r="52.9"/>
		<circle class="st391" cx="81" cy="87" r="53"/>
		<circle class="st392" cx="80.8" cy="87.1" r="53.1"/>
		<circle class="st393" cx="80.6" cy="87.2" r="53.1"/>
		<circle class="st394" cx="80.5" cy="87.3" r="53.2"/>
		<circle class="st395" cx="80.3" cy="87.4" r="53.2"/>
		<circle class="st396" cx="80.1" cy="87.4" r="53.3"/>
		<circle class="st397" cx="79.9" cy="87.5" r="53.4"/>
		<circle class="st398" cx="79.8" cy="87.6" r="53.4"/>
		<circle class="st399" cx="79.6" cy="87.7" r="53.5"/>
		<circle class="st400" cx="79.4" cy="87.8" r="53.5"/>
		<circle class="st401" cx="79.2" cy="87.9" r="53.6"/>
		<circle class="st402" cx="79.1" cy="88" r="53.6"/>
		<circle class="st403" cx="78.9" cy="88.1" r="53.7"/>
		<circle class="st404" cx="78.7" cy="88.1" r="53.8"/>
		<circle class="st405" cx="78.5" cy="88.2" r="53.8"/>
		<circle class="st406" cx="78.4" cy="88.3" r="53.9"/>
		<circle class="st407" cx="78.2" cy="88.4" r="53.9"/>
		<circle class="st408" cx="78" cy="88.5" r="54"/>
		<circle class="st409" cx="77.8" cy="88.6" r="54.1"/>
		<circle class="st410" cx="77.6" cy="88.7" r="54.1"/>
		<circle class="st411" cx="77.5" cy="88.8" r="54.2"/>
		<circle class="st412" cx="77.3" cy="88.9" r="54.2"/>
		<circle class="st413" cx="77.1" cy="88.9" r="54.3"/>
		<circle class="st414" cx="76.9" cy="89" r="54.4"/>
		<circle class="st415" cx="76.8" cy="89.1" r="54.4"/>
		<circle class="st416" cx="76.6" cy="89.2" r="54.5"/>
		<circle class="st417" cx="76.4" cy="89.3" r="54.5"/>
		<circle class="st418" cx="76.2" cy="89.4" r="54.6"/>
		<circle class="st419" cx="76.1" cy="89.5" r="54.6"/>
		<circle class="st420" cx="75.9" cy="89.6" r="54.7"/>
		<circle class="st421" cx="75.7" cy="89.6" r="54.8"/>
		<circle class="st422" cx="75.5" cy="89.7" r="54.8"/>
		<circle class="st423" cx="75.4" cy="89.8" r="54.9"/>
		<circle class="st424" cx="75.2" cy="89.9" r="54.9"/>
		<circle class="st425" cx="75" cy="90" r="55"/>
		<circle class="st426" cx="74.8" cy="90.1" r="55.1"/>
		<circle class="st427" cx="74.6" cy="90.2" r="55.1"/>
		<circle class="st428" cx="74.5" cy="90.3" r="55.2"/>
		<circle class="st429" cx="74.3" cy="90.4" r="55.2"/>
		<circle class="st430" cx="74.1" cy="90.4" r="55.3"/>
		<circle class="st431" cx="73.9" cy="90.5" r="55.4"/>
		<circle class="st432" cx="73.8" cy="90.6" r="55.4"/>
		<circle class="st433" cx="73.6" cy="90.7" r="55.5"/>
		<circle class="st434" cx="73.4" cy="90.8" r="55.5"/>
		<circle class="st435" cx="73.2" cy="90.9" r="55.6"/>
		<circle class="st436" cx="73.1" cy="91" r="55.6"/>
		<circle class="st437" cx="72.9" cy="91.1" r="55.7"/>
		<circle class="st438" cx="72.7" cy="91.1" r="55.8"/>
		<circle class="st439" cx="72.5" cy="91.2" r="55.8"/>
		<circle class="st440" cx="72.4" cy="91.3" r="55.9"/>
		<circle class="st441" cx="72.2" cy="91.4" r="55.9"/>
		<circle class="st442" cx="72" cy="91.5" r="56"/>
		<circle class="st443" cx="71.8" cy="91.6" r="56.1"/>
		<circle class="st444" cx="71.6" cy="91.7" r="56.1"/>
		<circle class="st445" cx="71.5" cy="91.8" r="56.2"/>
		<circle class="st446" cx="71.3" cy="91.9" r="56.2"/>
		<circle class="st447" cx="71.1" cy="91.9" r="56.3"/>
		<circle class="st448" cx="70.9" cy="92" r="56.4"/>
		<circle class="st449" cx="70.8" cy="92.1" r="56.4"/>
		<circle class="st450" cx="70.6" cy="92.2" r="56.5"/>
		<circle class="st451" cx="70.4" cy="92.3" r="56.5"/>
		<circle class="st452" cx="70.2" cy="92.4" r="56.6"/>
		<circle class="st453" cx="70.1" cy="92.5" r="56.6"/>
		<circle class="st454" cx="69.9" cy="92.6" r="56.7"/>
		<circle class="st455" cx="69.7" cy="92.6" r="56.8"/>
		<circle class="st456" cx="69.5" cy="92.7" r="56.8"/>
		<circle class="st457" cx="69.4" cy="92.8" r="56.9"/>
		<circle class="st458" cx="69.2" cy="92.9" r="56.9"/>
		<circle class="st459" cx="69" cy="93" r="57"/>
		<circle class="st460" cx="68.8" cy="93.1" r="57.1"/>
		<circle class="st461" cx="68.6" cy="93.2" r="57.1"/>
		<circle class="st462" cx="68.5" cy="93.3" r="57.2"/>
		<circle class="st463" cx="68.3" cy="93.4" r="57.2"/>
		<circle class="st464" cx="68.1" cy="93.4" r="57.3"/>
		<circle class="st465" cx="67.9" cy="93.5" r="57.4"/>
		<circle class="st466" cx="67.8" cy="93.6" r="57.4"/>
		<circle class="st467" cx="67.6" cy="93.7" r="57.5"/>
		<circle class="st468" cx="67.4" cy="93.8" r="57.5"/>
		<circle class="st469" cx="67.2" cy="93.9" r="57.6"/>
		<circle class="st470" cx="67.1" cy="94" r="57.6"/>
		<circle class="st471" cx="66.9" cy="94.1" r="57.7"/>
		<circle class="st472" cx="66.7" cy="94.1" r="57.8"/>
		<circle class="st473" cx="66.5" cy="94.2" r="57.8"/>
		<circle class="st474" cx="66.4" cy="94.3" r="57.9"/>
		<circle class="st475" cx="66.2" cy="94.4" r="57.9"/>
		<circle class="st476" cx="66" cy="94.5" r="58"/>
		<circle class="st477" cx="65.8" cy="94.6" r="58.1"/>
		<circle class="st478" cx="65.6" cy="94.7" r="58.1"/>
		<circle class="st479" cx="65.5" cy="94.8" r="58.2"/>
		<circle class="st480" cx="65.3" cy="94.9" r="58.2"/>
		<circle class="st481" cx="65.1" cy="94.9" r="58.3"/>
		<circle class="st482" cx="64.9" cy="95" r="58.4"/>
		<circle class="st483" cx="64.8" cy="95.1" r="58.4"/>
		<circle class="st484" cx="64.6" cy="95.2" r="58.5"/>
		<circle class="st485" cx="64.4" cy="95.3" r="58.5"/>
		<circle class="st486" cx="64.2" cy="95.4" r="58.6"/>
		<circle class="st487" cx="64.1" cy="95.5" r="58.6"/>
		<circle class="st488" cx="63.9" cy="95.6" r="58.7"/>
		<circle class="st489" cx="63.7" cy="95.6" r="58.8"/>
		<circle class="st490" cx="63.5" cy="95.7" r="58.8"/>
		<circle class="st491" cx="63.4" cy="95.8" r="58.9"/>
		<circle class="st492" cx="63.2" cy="95.9" r="58.9"/>
		<circle class="st493" cx="63" cy="96" r="59"/>
		<circle class="st494" cx="62.8" cy="96.1" r="59.1"/>
		<circle class="st495" cx="62.6" cy="96.2" r="59.1"/>
		<circle class="st496" cx="62.5" cy="96.3" r="59.2"/>
		<circle class="st497" cx="62.3" cy="96.4" r="59.2"/>
		<circle class="st498" cx="62.1" cy="96.4" r="59.3"/>
		<circle class="st499" cx="61.9" cy="96.5" r="59.4"/>
		<circle class="st500" cx="61.8" cy="96.6" r="59.4"/>
		<circle class="st501" cx="61.6" cy="96.7" r="59.5"/>
		<circle class="st502" cx="61.4" cy="96.8" r="59.5"/>
		<circle class="st503" cx="61.2" cy="96.9" r="59.6"/>
		<circle class="st504" cx="61.1" cy="97" r="59.6"/>
		<circle class="st505" cx="60.9" cy="97.1" r="59.7"/>
		<circle class="st506" cx="60.7" cy="97.1" r="59.8"/>
		<circle class="st507" cx="60.5" cy="97.2" r="59.8"/>
		<circle class="st508" cx="60.4" cy="97.3" r="59.9"/>
		<circle class="st509" cx="60.2" cy="97.4" r="59.9"/>
		<circle class="st510" cx="60" cy="97.5" r="60"/>
	</g>
	<path class="st511" d="M47,71l-3.8,24.2c-0.1,0.5-0.4,0.8-0.9,0.8h-2.9c-0.7,0-1-0.3-0.8-1l2.9-18.6h-0.1l-9.4,18.9
		c-0.2,0.4-0.6,0.7-1.1,0.7h-2.4c-0.5,0-0.9-0.3-1-0.8l-3.5-18.8H24l-3,18.8c-0.1,0.5-0.4,0.8-0.9,0.8h-2.8c-0.7,0-1-0.3-0.8-1
		l3.8-24.2c0.1-0.5,0.4-0.8,0.9-0.8h5.2c0.5,0,0.9,0.3,1,0.8l3.3,17.8h0.1l9-18c0.2-0.4,0.6-0.7,1.1-0.7h5.4
		C46.8,70.1,47.1,70.4,47,71z M65.7,77.6l-2.9,18.2c-0.4,2.2-1.3,4-2.7,5.2c-1.4,1.2-3.3,1.8-5.7,1.8c-1.3,0-2.5-0.2-3.6-0.5
		c-1.1-0.4-2-0.9-2.8-1.5c-0.4-0.4-0.5-0.8-0.1-1.3l1.2-1.6c0.4-0.5,0.8-0.5,1.3-0.1c0.6,0.5,1.2,0.8,1.8,1c0.7,0.2,1.4,0.3,2.1,0.3
		c2.4,0,3.8-1.2,4.2-3.6l0.2-1h-0.1c-1,0.9-2.3,1.4-4,1.4c-1.9,0-3.3-0.5-4.3-1.5c-1-1-1.5-2.4-1.5-4.2c0-0.3,0-0.6,0-0.9
		c0-0.3,0.1-0.6,0.1-0.9l1.7-10.9c0.1-0.5,0.4-0.8,0.9-0.8h2.5c0.7,0,1,0.3,0.8,1l-1.7,10.7c-0.1,0.4-0.1,0.8-0.1,1.2
		c0,1.8,0.9,2.7,2.8,2.7c2.1,0,3.3-1.3,3.8-4l1.7-10.8c0.1-0.5,0.4-0.8,0.9-0.8h2.5C65.5,76.6,65.8,76.9,65.7,77.6z M71.5,77.9
		c1.2-1.2,2.9-1.8,5.1-1.8c0.9,0,1.8,0.1,2.5,0.3c0.8,0.2,1.4,0.5,2,0.9c0.5,0.3,0.5,0.7,0.2,1.3l-1,1.6c-0.3,0.5-0.7,0.5-1.3,0.2
		c-0.7-0.4-1.4-0.6-2.2-0.6c-2,0-3.1,1.2-3.5,3.6l-1.9,11.9c-0.1,0.5-0.4,0.8-0.9,0.8h-2.5c-0.7,0-1-0.3-0.8-1l1.8-11.8
		C69.5,80.9,70.3,79.1,71.5,77.9z M81.4,95.1l2.8-17.7c0.1-0.5,0.4-0.8,0.9-0.8h2.5c0.7,0,1,0.3,0.8,1l-2.8,17.7
		c-0.1,0.5-0.4,0.8-0.9,0.8h-2.5C81.6,96.1,81.3,95.8,81.4,95.1z M85.6,72.7c-0.4-0.4-0.6-1-0.6-1.7c0-0.8,0.3-1.5,0.8-2
		c0.5-0.5,1.1-0.8,1.9-0.8c0.7,0,1.3,0.2,1.7,0.6c0.4,0.4,0.6,1,0.6,1.7c0,0.8-0.3,1.5-0.8,2c-0.5,0.5-1.2,0.7-1.9,0.7
		C86.6,73.3,86,73.1,85.6,72.7z M104,77.7c1.2,1,1.8,2.6,1.8,4.6c0,0.5,0,1.1-0.1,1.6l-0.9,5.4c-0.4,2.4-1.2,4.2-2.6,5.5
		c-1.4,1.2-3.4,1.8-5.9,1.8c-2.2,0-3.8-0.5-5-1.5c-1.1-1-1.7-2.4-1.7-4.2c0-2.1,0.7-3.7,2-4.8c1.3-1.1,3.3-1.7,5.9-1.7h3.8
		c0.1-0.4,0.1-0.7,0.1-0.9c0-0.2,0-0.4,0-0.6c0-1.1-0.3-1.9-0.8-2.4c-0.6-0.5-1.4-0.7-2.5-0.7c-0.6,0-1.2,0.1-1.9,0.4
		c-0.6,0.2-1.2,0.5-1.7,0.9c-0.5,0.4-0.9,0.3-1.3-0.2l-0.9-1.6c-0.3-0.5-0.2-0.9,0.4-1.3c1-0.6,1.9-1.1,2.9-1.4
		c0.9-0.3,2-0.4,3.1-0.4C101,76.1,102.8,76.7,104,77.7z M100.7,88.8l0.2-1.2h-3.1c-1.2,0-2.2,0.3-2.8,0.8c-0.7,0.5-1,1.3-1,2.3
		c0,0.8,0.2,1.3,0.7,1.7c0.5,0.4,1.1,0.6,2,0.6C98.9,92.9,100.3,91.5,100.7,88.8z M27.8,120c0.4-0.5,0.8-0.6,1.3-0.2l1.9,1.4
		c0.5,0.3,0.6,0.8,0.2,1.3c-1.1,1.5-2.3,2.6-3.7,3.3c-1.4,0.7-3,1-4.9,1c-2.7,0-4.7-0.7-6.2-2c-1.5-1.3-2.2-3.2-2.2-5.6
		c0-0.3,0-0.6,0.1-1c0-0.4,0.1-0.7,0.1-1.1l1.3-8.2c0.9-6.1,4.4-9.2,10.4-9.2c1.9,0,3.5,0.4,4.8,1.2c1.3,0.8,2.3,1.9,3,3.4
		c0.2,0.5,0.1,0.9-0.4,1.2l-2.2,1.2c-0.5,0.3-0.9,0.1-1.2-0.4c-0.4-0.8-1-1.3-1.7-1.8c-0.7-0.4-1.6-0.6-2.6-0.6
		c-3.1,0-5,1.9-5.6,5.8l-1.1,7.3c-0.1,0.6-0.2,1.2-0.2,1.6c0,2.7,1.3,4.1,4,4.1C24.9,122.6,26.5,121.7,27.8,120z M48.4,107.9
		c1.2,1,1.8,2.5,1.8,4.5c0,0.5,0,1-0.1,1.6l-0.9,5.5c-0.8,4.9-3.6,7.3-8.4,7.3c-2.2,0-4-0.5-5.2-1.5c-1.2-1-1.8-2.5-1.8-4.5
		c0-0.5,0.1-1,0.2-1.6l0.9-5.5c0.8-4.9,3.6-7.3,8.4-7.3C45.4,106.3,47.2,106.8,48.4,107.9z M45,118.9l0.7-4.9
		c0.1-0.4,0.1-0.8,0.1-1.2c0-1.9-1-2.9-2.9-2.9c-2.2,0-3.5,1.4-4,4.1l-0.7,4.9c-0.1,0.4-0.1,0.8-0.1,1.2c0,1.9,0.9,2.9,2.8,2.9
		C43.2,123,44.6,121.7,45,118.9z M70.9,99.8l-3.1,19.6c-0.4,2.4-1.2,4.2-2.6,5.5c-1.4,1.2-3.3,1.8-5.7,1.8c-2.2,0-4-0.5-5.2-1.6
		c-1.2-1-1.8-2.5-1.8-4.4c0-0.3,0-0.5,0-0.8c0-0.3,0.1-0.5,0.1-0.8l0.9-5.5c0.8-4.9,3.4-7.3,7.8-7.3c1.8,0,3.2,0.6,4,1.7h0.1
		l1.4-8.4c0.1-0.5,0.4-0.8,0.9-0.8H70C70.7,98.8,71,99.1,70.9,99.8z M64.4,113.5v-0.5c0-2-0.9-2.9-2.8-2.9c-2.3,0-3.6,1.4-4,4.1
		l-0.7,4.9c-0.1,0.4-0.1,0.8-0.1,1.2c0,1.9,1,2.9,2.9,2.9c2.2,0,3.5-1.4,4-4.1l0.8-4.9C64.4,113.8,64.4,113.6,64.4,113.5z
		 M85.6,107.9c1.2,1,1.8,2.5,1.8,4.5c0,0.5,0,1-0.1,1.6l-0.5,3.1c-0.1,0.5-0.4,0.8-0.9,0.8h-9.9l-0.1,0.8c-0.1,0.5-0.1,0.9-0.1,1.3
		c0,1.1,0.3,1.9,0.9,2.4c0.6,0.5,1.5,0.7,2.6,0.7c1.3,0,2.5-0.5,3.5-1.4c0.5-0.4,1-0.3,1.3,0.2l1,1.6c0.3,0.5,0.2,0.9-0.2,1.3
		c-1.8,1.4-3.7,2.1-5.9,2.1c-2.4,0-4.3-0.5-5.6-1.6c-1.3-1-1.9-2.6-1.9-4.6c0-0.5,0.1-1.1,0.2-1.7l0.8-5.2c0.8-4.9,3.5-7.3,8.2-7.3
		C82.8,106.3,84.5,106.8,85.6,107.9z M77.8,111c-0.6,0.7-1.1,1.7-1.3,3.1l-0.1,0.5h6.7l0.1-0.6c0.1-0.5,0.1-0.9,0.1-1.3
		c0-1.9-0.9-2.8-2.8-2.8C79.3,110,78.4,110.3,77.8,111z"/>
</g>
</svg>
