<?xml version="1.0" encoding="utf-8"?>
<!-- Generator: Adobe Illustrator 19.2.0, SVG Export Plug-In . SVG Version: 6.00 Build 0)  -->
<svg version="1.1" id="Layer_2" xmlns="http://www.w3.org/2000/svg" xmlns:xlink="http://www.w3.org/1999/xlink" x="0px" y="0px"
	 viewBox="0 0 52.5 55" style="enable-background:new 0 0 52.5 55;" xml:space="preserve">
<style type="text/css">
	.st0{fill:#FFFFFF;}
</style>
<path class="st0" d="M16.7,24.9l-1.3,8.3c0,0.2-0.1,0.3-0.3,0.3h-1c-0.2,0-0.3-0.1-0.3-0.3l1-6.3h0l-3.2,6.4
	c-0.1,0.2-0.2,0.2-0.4,0.2h-0.8c-0.2,0-0.3-0.1-0.3-0.3l-1.2-6.4h0l-1,6.4c0,0.2-0.1,0.3-0.3,0.3H6.6c-0.2,0-0.3-0.1-0.3-0.3
	l1.3-8.3c0-0.2,0.1-0.3,0.3-0.3h1.8c0.2,0,0.3,0.1,0.3,0.3l1.1,6.1h0l3.1-6.1c0.1-0.2,0.2-0.2,0.4-0.2h1.8
	C16.7,24.5,16.8,24.6,16.7,24.9z M23.1,27.1l-1,6.2c-0.1,0.8-0.4,1.4-0.9,1.8c-0.5,0.4-1.1,0.6-1.9,0.6c-0.5,0-0.9-0.1-1.2-0.2
	c-0.4-0.1-0.7-0.3-0.9-0.5c-0.2-0.1-0.2-0.3,0-0.4l0.4-0.5c0.1-0.2,0.3-0.2,0.4,0c0.2,0.2,0.4,0.3,0.6,0.3c0.2,0.1,0.5,0.1,0.7,0.1
	c0.8,0,1.3-0.4,1.4-1.2l0.1-0.3h0c-0.3,0.3-0.8,0.5-1.4,0.5c-0.6,0-1.1-0.2-1.5-0.5c-0.3-0.3-0.5-0.8-0.5-1.4c0-0.1,0-0.2,0-0.3
	c0-0.1,0-0.2,0-0.3L18,27c0-0.2,0.1-0.3,0.3-0.3h0.8c0.2,0,0.3,0.1,0.3,0.3l-0.6,3.6c0,0.2,0,0.3,0,0.4c0,0.6,0.3,0.9,0.9,0.9
	c0.7,0,1.1-0.4,1.3-1.3l0.6-3.7c0-0.2,0.1-0.3,0.3-0.3h0.8C23,26.8,23.1,26.9,23.1,27.1z M25.1,27.2c0.4-0.4,1-0.6,1.7-0.6
	c0.3,0,0.6,0,0.9,0.1c0.3,0.1,0.5,0.2,0.7,0.3c0.2,0.1,0.2,0.2,0.1,0.4L28.1,28c-0.1,0.2-0.2,0.2-0.4,0.1c-0.2-0.1-0.5-0.2-0.8-0.2
	c-0.7,0-1.1,0.4-1.2,1.2l-0.6,4c0,0.2-0.1,0.3-0.3,0.3h-0.8c-0.2,0-0.3-0.1-0.3-0.3l0.6-4C24.4,28.2,24.7,27.6,25.1,27.2z
	 M28.4,33.1l1-6c0-0.2,0.1-0.3,0.3-0.3h0.8c0.2,0,0.3,0.1,0.3,0.3l-1,6c0,0.2-0.1,0.3-0.3,0.3h-0.8C28.5,33.4,28.4,33.3,28.4,33.1z
	 M29.9,25.4c-0.1-0.1-0.2-0.3-0.2-0.6c0-0.3,0.1-0.5,0.3-0.7s0.4-0.3,0.6-0.3c0.2,0,0.4,0.1,0.6,0.2c0.1,0.1,0.2,0.3,0.2,0.6
	c0,0.3-0.1,0.5-0.3,0.7c-0.2,0.2-0.4,0.3-0.7,0.3C30.2,25.7,30,25.6,29.9,25.4z M36.1,27.1c0.4,0.4,0.6,0.9,0.6,1.6
	c0,0.2,0,0.4,0,0.5l-0.3,1.8c-0.1,0.8-0.4,1.4-0.9,1.9c-0.5,0.4-1.1,0.6-2,0.6c-0.7,0-1.3-0.2-1.7-0.5c-0.4-0.3-0.6-0.8-0.6-1.4
	c0-0.7,0.2-1.3,0.7-1.6c0.4-0.4,1.1-0.6,2-0.6h1.3c0-0.1,0-0.2,0-0.3c0-0.1,0-0.1,0-0.2c0-0.4-0.1-0.6-0.3-0.8
	c-0.2-0.2-0.5-0.2-0.9-0.2c-0.2,0-0.4,0-0.6,0.1c-0.2,0.1-0.4,0.2-0.6,0.3c-0.2,0.1-0.3,0.1-0.4-0.1l-0.3-0.6
	c-0.1-0.2-0.1-0.3,0.1-0.4c0.3-0.2,0.7-0.4,1-0.5c0.3-0.1,0.7-0.1,1-0.1C35.1,26.6,35.7,26.8,36.1,27.1z M35,30.9l0.1-0.4h-1
	c-0.4,0-0.7,0.1-1,0.3c-0.2,0.2-0.3,0.4-0.3,0.8c0,0.3,0.1,0.5,0.2,0.6c0.2,0.1,0.4,0.2,0.7,0.2C34.4,32.3,34.9,31.8,35,30.9z
	 M10.2,41.5c0.1-0.2,0.3-0.2,0.4-0.1l0.7,0.5c0.2,0.1,0.2,0.3,0.1,0.4c-0.4,0.5-0.8,0.9-1.3,1.1c-0.5,0.2-1,0.4-1.7,0.4
	c-0.9,0-1.6-0.2-2.1-0.7c-0.5-0.4-0.7-1.1-0.7-1.9c0-0.1,0-0.2,0-0.3c0-0.1,0-0.2,0-0.4L6,37.8c0.3-2.1,1.5-3.1,3.6-3.1
	c0.6,0,1.2,0.1,1.6,0.4c0.4,0.3,0.8,0.6,1,1.2c0.1,0.2,0,0.3-0.1,0.4L11.3,37c-0.2,0.1-0.3,0-0.4-0.1c-0.1-0.3-0.3-0.5-0.6-0.6
	C10.1,36.1,9.8,36,9.5,36c-1.1,0-1.7,0.7-1.9,2l-0.4,2.5c0,0.2-0.1,0.4-0.1,0.6c0,0.9,0.4,1.4,1.3,1.4C9.2,42.4,9.7,42.1,10.2,41.5z
	 M17.2,37.4c0.4,0.4,0.6,0.9,0.6,1.5c0,0.2,0,0.3,0,0.5l-0.3,1.9c-0.3,1.7-1.2,2.5-2.8,2.5c-0.8,0-1.4-0.2-1.8-0.5
	c-0.4-0.4-0.6-0.9-0.6-1.5c0-0.2,0-0.3,0.1-0.5l0.3-1.9c0.3-1.7,1.2-2.5,2.8-2.5C16.2,36.9,16.8,37.1,17.2,37.4z M16,41.2l0.3-1.7
	c0-0.1,0-0.3,0-0.4c0-0.7-0.3-1-1-1c-0.8,0-1.2,0.5-1.3,1.4l-0.3,1.7c0,0.2,0,0.3,0,0.4c0,0.6,0.3,1,1,1
	C15.4,42.6,15.9,42.1,16,41.2z M24.8,34.7l-1.1,6.7c-0.1,0.8-0.4,1.4-0.9,1.9c-0.5,0.4-1.1,0.6-1.9,0.6c-0.8,0-1.4-0.2-1.8-0.5
	c-0.4-0.4-0.6-0.9-0.6-1.5c0-0.1,0-0.2,0-0.3c0-0.1,0-0.2,0-0.3l0.3-1.9c0.3-1.7,1.1-2.5,2.6-2.5c0.6,0,1.1,0.2,1.4,0.6h0l0.5-2.9
	c0-0.2,0.1-0.3,0.3-0.3h0.8C24.8,34.3,24.9,34.4,24.8,34.7z M22.6,39.3v-0.2c0-0.7-0.3-1-0.9-1c-0.8,0-1.2,0.5-1.4,1.4l-0.3,1.7
	c0,0.2,0,0.3,0,0.4c0,0.6,0.3,1,1,1c0.8,0,1.2-0.5,1.3-1.4l0.3-1.7C22.6,39.4,22.6,39.4,22.6,39.3z M29.9,37.4
	c0.4,0.4,0.6,0.9,0.6,1.5c0,0.2,0,0.3,0,0.5l-0.2,1.1c0,0.2-0.1,0.3-0.3,0.3h-3.4l0,0.3c0,0.2,0,0.3,0,0.5c0,0.4,0.1,0.6,0.3,0.8
	c0.2,0.2,0.5,0.2,0.9,0.2c0.4,0,0.8-0.2,1.2-0.5c0.2-0.1,0.3-0.1,0.4,0.1l0.3,0.5c0.1,0.2,0.1,0.3-0.1,0.4c-0.6,0.5-1.3,0.7-2,0.7
	c-0.8,0-1.5-0.2-1.9-0.5c-0.4-0.4-0.7-0.9-0.7-1.6c0-0.2,0-0.4,0.1-0.6l0.3-1.8c0.3-1.7,1.2-2.5,2.8-2.5
	C28.9,36.9,29.5,37.1,29.9,37.4z M27.2,38.5c-0.2,0.2-0.4,0.6-0.4,1.1l0,0.2H29l0-0.2c0-0.2,0-0.3,0-0.4c0-0.6-0.3-0.9-1-0.9
	C27.7,38.1,27.4,38.2,27.2,38.5z M21.1,55C9.5,55,0,45.5,0,33.9c0-7.2,3.6-13.6,9.2-17.4c-1-1.7-1.5-3.6-1.5-5.5
	C7.7,4.9,12.6,0,18.6,0c1.8,0,3.5,0.4,5.1,1.3l20.3,10.8c5.3,2.8,8.5,8.2,8.5,14.2c0,4.4-1.7,8.4-4.8,11.5L35.7,49.1
	C31.8,52.9,26.6,55,21.1,55z M10.3,17.3c-5.5,3.5-9,9.7-9,16.6c0,10.9,8.9,19.8,19.8,19.8c5.1,0,10-1.9,13.6-5.5l11.9-11.4
	c2.9-2.8,4.4-6.5,4.4-10.5c0-5.4-3-10.4-7.8-13L23,2.5c-1.4-0.7-2.9-1.1-4.4-1.1c-5.3,0-9.5,4.3-9.5,9.5c0,1.7,0.4,3.4,1.3,4.8
	c2.2-1.3,4.7-2.2,7.4-2.7l13-2.1c0.4-0.1,0.7,0.2,0.8,0.6c0.1,0.4-0.2,0.7-0.6,0.8l-13,2.1c-2.7,0.4-5.1,1.4-7.3,2.7
	c0,0-0.1,0.1-0.1,0.1C10.5,17.3,10.4,17.3,10.3,17.3z"/>
</svg>
