<?xml version="1.0" encoding="utf-8"?>
<!-- Generator: Adobe Illustrator 19.2.0, SVG Export Plug-In . SVG Version: 6.00 Build 0)  -->
<svg version="1.1" id="Layer_1" xmlns="http://www.w3.org/2000/svg" xmlns:xlink="http://www.w3.org/1999/xlink" x="0px" y="0px"
	 viewBox="0 0 110 23" style="enable-background:new 0 0 110 23;" xml:space="preserve">
<style type="text/css">
	.st0{fill:#E62B1E;}
</style>
<g id="TEDxOradea_pozitiv">
	<path class="st0" d="M1.4,20l-1-1.4h0.9l0.5,0.8l0.5-0.8h0.9l-1,1.4l1.1,1.6H2.4l-0.6-0.9l-0.6,0.9H0.3L1.4,20z M3.8,4.1H0V0.6
		h11.7v3.5H7.9v10H3.8V4.1z M12.4,0.6h11.4v3.5h-7.2v1.7h7.2V9h-7.2v1.7h7.2v3.5H12.4V0.6z M24.4,0.6h6.8c4.5,0,6.1,3.3,6.1,6.7
		c0,4.1-2.2,6.8-6.9,6.8h-6V0.6z M28.6,10.7h1.6c2.6,0,3-2.1,3-3.4c0-0.8-0.3-3.2-3.3-3.2h-1.3V10.7z M43.3,8.9L42,6.8l-1.2,2.1h-3
		l2.9-4.3l-2.8-4.1h3l1.1,2l1.2-2h3l-2.8,4.1l2.9,4.3H43.3z"/>
	<path d="M7.2,19.8H4.3v-0.6h2.9V19.8z M7.2,21H4.3v-0.6h2.9V21z M9.4,18.2H8.6v-0.7h0.8V18.2z M8.6,18.6h0.8v2.9H8.6V18.6z
		 M9.9,18.6h0.8V19h0c0.2-0.3,0.6-0.5,0.9-0.5c0.9,0,1.1,0.5,1.1,1.2v1.8h-0.8v-1.7c0-0.5-0.1-0.7-0.5-0.7c-0.4,0-0.6,0.2-0.6,0.8
		v1.5H9.9V18.6z M15.2,21.2L15.2,21.2c-0.2,0.3-0.5,0.5-0.9,0.5c-0.9,0-1.3-0.8-1.3-1.6c0-0.8,0.4-1.5,1.3-1.5
		c0.3,0,0.7,0.1,0.9,0.4h0h0v-1.5H16v4.1h-0.8V21.2z M14.5,19.1c-0.5,0-0.7,0.5-0.7,0.9c0,0.5,0.2,0.9,0.7,0.9
		c0.5,0,0.7-0.5,0.7-0.9C15.2,19.6,15,19.1,14.5,19.1z M17.2,20.3c0,0.5,0.3,0.7,0.7,0.7c0.3,0,0.6-0.2,0.6-0.4h0.7
		c-0.2,0.7-0.7,1-1.4,1c-0.9,0-1.5-0.6-1.5-1.5c0-0.9,0.6-1.5,1.5-1.5c1,0,1.5,0.8,1.4,1.7H17.2z M18.5,19.8
		c-0.1-0.4-0.2-0.6-0.6-0.6c-0.5,0-0.7,0.4-0.7,0.6H18.5z M19.6,18.6h0.8V19h0c0.2-0.3,0.5-0.5,0.9-0.5c0.9,0,1.3,0.7,1.3,1.6
		c0,0.8-0.4,1.5-1.3,1.5c-0.4,0-0.7-0.2-0.9-0.4h0v1.4h-0.8V18.6z M21.8,20.1c0-0.5-0.2-0.9-0.7-0.9c-0.5,0-0.7,0.5-0.7,0.9
		c0,0.5,0.2,0.9,0.7,0.9C21.6,21,21.8,20.6,21.8,20.1z M23.7,20.3c0,0.5,0.3,0.7,0.7,0.7c0.3,0,0.6-0.2,0.6-0.4h0.7
		c-0.2,0.7-0.7,1-1.4,1c-0.9,0-1.5-0.6-1.5-1.5c0-0.9,0.6-1.5,1.5-1.5c1,0,1.5,0.8,1.4,1.7H23.7z M25,19.8c-0.1-0.4-0.2-0.6-0.6-0.6
		c-0.5,0-0.7,0.4-0.7,0.6H25z M26.1,18.6h0.8V19h0c0.2-0.3,0.6-0.5,0.9-0.5c0.9,0,1.1,0.5,1.1,1.2v1.8h-0.8v-1.7
		c0-0.5-0.1-0.7-0.5-0.7c-0.4,0-0.6,0.2-0.6,0.8v1.5h-0.8V18.6z M31.5,21.2L31.5,21.2c-0.2,0.3-0.5,0.5-0.9,0.5
		c-0.9,0-1.3-0.8-1.3-1.6c0-0.8,0.4-1.5,1.3-1.5c0.3,0,0.7,0.1,0.9,0.4h0h0v-1.5h0.8v4.1h-0.8V21.2z M30.8,19.1
		c-0.5,0-0.7,0.5-0.7,0.9c0,0.5,0.2,0.9,0.7,0.9c0.5,0,0.7-0.5,0.7-0.9C31.5,19.6,31.3,19.1,30.8,19.1z M33.4,20.3
		c0,0.5,0.3,0.7,0.7,0.7c0.3,0,0.6-0.2,0.6-0.4h0.7c-0.2,0.7-0.7,1-1.4,1c-0.9,0-1.5-0.6-1.5-1.5c0-0.9,0.6-1.5,1.5-1.5
		c1,0,1.5,0.8,1.4,1.7H33.4z M34.7,19.8c-0.1-0.4-0.2-0.6-0.6-0.6c-0.5,0-0.7,0.4-0.7,0.6H34.7z M35.9,18.6h0.8V19h0
		c0.2-0.3,0.6-0.5,0.9-0.5c0.9,0,1.1,0.5,1.1,1.2v1.8h-0.8v-1.7c0-0.5-0.1-0.7-0.5-0.7c-0.4,0-0.6,0.2-0.6,0.8v1.5h-0.8V18.6z
		 M40.2,18.6h0.6v0.5h-0.6v1.5c0,0.3,0.1,0.3,0.3,0.3c0.1,0,0.2,0,0.2,0v0.6c-0.1,0-0.3,0-0.5,0c-0.5,0-0.9-0.1-0.9-0.7v-1.7h-0.5
		v-0.5h0.5v-0.9h0.8V18.6z M41,17.5h0.8v4.1H41V17.5z M43.8,21.9c-0.2,0.5-0.5,0.7-1,0.7c-0.2,0-0.3,0-0.5,0v-0.7c0.2,0,0.3,0,0.5,0
		c0.3,0,0.4-0.3,0.3-0.6l-1-2.8h0.9l0.7,2h0l0.6-2H45L43.8,21.9z M48.1,18.5c0.9,0,1.5,0.6,1.5,1.5c0,0.9-0.6,1.5-1.5,1.5
		c-0.9,0-1.5-0.6-1.5-1.5C46.6,19.2,47.2,18.5,48.1,18.5z M48.1,21c0.6,0,0.7-0.5,0.7-0.9c0-0.5-0.2-0.9-0.7-0.9
		c-0.5,0-0.7,0.5-0.7,0.9C47.4,20.6,47.5,21,48.1,21z M49.9,18.6h0.8v0.5h0c0.1-0.4,0.5-0.6,0.9-0.6c0.1,0,0.1,0,0.2,0v0.7
		c-0.1,0-0.2,0-0.3,0c-0.6,0-0.8,0.4-0.8,0.9v1.3h-0.8V18.6z M54.8,21.4c0,0.5-0.2,1.3-1.5,1.3c-0.6,0-1.3-0.3-1.3-0.9h0.8
		c0.1,0.3,0.3,0.4,0.6,0.4c0.4,0,0.7-0.3,0.6-0.7V21h0c-0.2,0.3-0.5,0.5-0.9,0.5c-0.9,0-1.3-0.7-1.3-1.5c0-0.8,0.4-1.5,1.3-1.5
		c0.4,0,0.7,0.1,0.9,0.5h0v-0.4h0.8V21.4z M54.1,20.1c0-0.5-0.2-0.9-0.7-0.9c-0.5,0-0.7,0.4-0.7,0.8c0,0.4,0.2,0.9,0.7,0.9
		C53.8,20.9,54.1,20.5,54.1,20.1z M55.2,19.5c0-0.8,0.7-1,1.4-1c0.6,0,1.3,0.1,1.3,0.8v1.5c0,0.3,0,0.5,0.1,0.7h-0.8
		c0-0.1-0.1-0.2-0.1-0.3c-0.3,0.3-0.6,0.4-1,0.4c-0.6,0-1-0.3-1-0.9c0-0.7,0.5-0.8,1-0.9c0.5-0.1,1-0.1,1-0.4c0-0.3-0.2-0.4-0.5-0.4
		c-0.3,0-0.5,0.1-0.5,0.4H55.2z M57.1,20.1c-0.1,0.1-0.4,0.1-0.7,0.2c-0.2,0.1-0.5,0.1-0.5,0.4c0,0.3,0.2,0.4,0.5,0.4
		c0.6,0,0.7-0.5,0.7-0.7V20.1z M58.4,18.6h0.8V19h0c0.2-0.3,0.6-0.5,0.9-0.5c0.9,0,1.1,0.5,1.1,1.2v1.8h-0.8v-1.7
		c0-0.5-0.1-0.7-0.5-0.7c-0.4,0-0.6,0.2-0.6,0.8v1.5h-0.8V18.6z M62.3,18.2h-0.8v-0.7h0.8V18.2z M61.5,18.6h0.8v2.9h-0.8V18.6z
		 M62.7,20.9l1.5-1.7h-1.4v-0.6h2.5v0.6l-1.5,1.7h1.6v0.6h-2.7V20.9z M66.4,20.3c0,0.5,0.3,0.7,0.7,0.7c0.3,0,0.6-0.2,0.6-0.4h0.7
		c-0.2,0.7-0.7,1-1.4,1c-0.9,0-1.5-0.6-1.5-1.5c0-0.9,0.6-1.5,1.5-1.5c1,0,1.5,0.8,1.4,1.7H66.4z M67.7,19.8
		c-0.1-0.4-0.2-0.6-0.6-0.6c-0.5,0-0.7,0.4-0.7,0.6H67.7z M70.9,21.2L70.9,21.2c-0.2,0.3-0.5,0.5-0.9,0.5c-0.9,0-1.3-0.8-1.3-1.6
		c0-0.8,0.4-1.5,1.3-1.5c0.3,0,0.7,0.1,0.9,0.4h0h0v-1.5h0.8v4.1h-0.8V21.2z M70.2,19.1c-0.5,0-0.7,0.5-0.7,0.9
		c0,0.5,0.2,0.9,0.7,0.9c0.5,0,0.7-0.5,0.7-0.9C70.9,19.6,70.8,19.1,70.2,19.1z M74.6,18.3h-1.2v-0.7h3.3v0.7h-1.2v3.3h-0.9V18.3z
		 M77.1,17.5h3v0.7H78v0.9h2v0.7h-2v1h2.2v0.7h-3.1V17.5z M80.6,17.5h1.7c1.1,0,1.8,0.7,1.8,2c0,1.2-0.6,2-1.8,2h-1.7V17.5z
		 M81.4,20.8h0.8c0.5,0,1-0.3,1-1.2c0-0.8-0.3-1.3-1.2-1.3h-0.6V20.8z M86.7,20.3c0,0.5,0.3,0.7,0.7,0.7c0.3,0,0.6-0.2,0.6-0.4h0.7
		c-0.2,0.7-0.7,1-1.4,1c-0.9,0-1.5-0.6-1.5-1.5c0-0.9,0.6-1.5,1.5-1.5c1,0,1.5,0.8,1.4,1.7H86.7z M88,19.8c-0.1-0.4-0.2-0.6-0.6-0.6
		c-0.5,0-0.7,0.4-0.7,0.6H88z M90.7,21.6h-0.9l-1-2.9h0.8l0.6,2h0l0.6-2h0.8L90.7,21.6z M92.4,20.3c0,0.5,0.3,0.7,0.7,0.7
		c0.3,0,0.6-0.2,0.6-0.4h0.7c-0.2,0.7-0.7,1-1.4,1c-0.9,0-1.5-0.6-1.5-1.5c0-0.9,0.6-1.5,1.5-1.5c1,0,1.5,0.8,1.4,1.7H92.4z
		 M93.8,19.8c-0.1-0.4-0.2-0.6-0.6-0.6c-0.5,0-0.7,0.4-0.7,0.6H93.8z M94.9,18.6h0.8V19h0c0.2-0.3,0.6-0.5,0.9-0.5
		c0.9,0,1.1,0.5,1.1,1.2v1.8h-0.8v-1.7c0-0.5-0.1-0.7-0.5-0.7c-0.4,0-0.6,0.2-0.6,0.8v1.5h-0.8V18.6z M99.2,18.6h0.6v0.5h-0.6v1.5
		c0,0.3,0.1,0.3,0.3,0.3c0.1,0,0.2,0,0.2,0v0.6c-0.1,0-0.3,0-0.5,0c-0.5,0-0.9-0.1-0.9-0.7v-1.7h-0.5v-0.5h0.5v-0.9h0.8V18.6z
		 M60.4,2.6c0.9,1.2,1.3,2.7,1.3,4.6c0,2-0.5,3.7-1.5,5c-1.2,1.6-2.9,2.3-5.1,2.3c-2.1,0-3.7-0.7-4.9-2c-1.1-1.3-1.6-3-1.6-5
		c0-1.8,0.5-3.4,1.4-4.7c1.2-1.7,2.9-2.5,5.1-2.5C57.5,0.3,59.3,1.1,60.4,2.6z M58.8,11.2c0.7-1.2,1.1-2.5,1.1-4
		c0-1.6-0.4-2.9-1.2-3.8c-0.8-1-2-1.4-3.4-1.4c-1.4,0-2.5,0.5-3.4,1.4c-0.9,1-1.3,2.4-1.3,4.2c0,1.5,0.4,2.7,1.1,3.8
		c0.8,1,2,1.5,3.7,1.5C56.9,12.9,58.1,12.3,58.8,11.2z M63.7,4.3h1.6V6c0.1-0.3,0.4-0.7,0.9-1.2c0.5-0.5,1.1-0.7,1.7-0.7
		c0,0,0.1,0,0.2,0c0.1,0,0.2,0,0.4,0v1.7c-0.1,0-0.2,0-0.3,0c-0.1,0-0.2,0-0.3,0c-0.8,0-1.5,0.3-1.9,0.8c-0.4,0.5-0.7,1.1-0.7,1.8
		v5.6h-1.6V4.3z M75.2,8.2c0.4,0,0.6-0.2,0.8-0.5c0.1-0.1,0.1-0.4,0.1-0.6c0-0.6-0.2-1-0.6-1.2c-0.4-0.3-1-0.4-1.7-0.4
		c-0.9,0-1.5,0.2-1.8,0.7c-0.2,0.3-0.3,0.6-0.4,1.1H70c0-1.2,0.4-2.1,1.2-2.5c0.8-0.5,1.6-0.7,2.6-0.7c1.2,0,2.1,0.2,2.8,0.7
		c0.7,0.4,1.1,1.1,1.1,2v5.6c0,0.2,0,0.3,0.1,0.4C77.8,13,78,13,78.2,13c0.1,0,0.2,0,0.2,0c0.1,0,0.2,0,0.3,0v1.2
		c-0.3,0.1-0.5,0.1-0.6,0.1c-0.1,0-0.3,0-0.5,0c-0.6,0-1-0.2-1.2-0.6c-0.1-0.2-0.2-0.5-0.3-0.9c-0.3,0.4-0.8,0.8-1.4,1.1
		c-0.6,0.3-1.3,0.5-2.1,0.5c-0.9,0-1.7-0.3-2.2-0.8c-0.6-0.6-0.9-1.2-0.9-2.1c0-0.9,0.3-1.6,0.9-2.1c0.6-0.5,1.3-0.8,2.2-0.9
		L75.2,8.2z M71.7,12.7c0.3,0.3,0.8,0.4,1.2,0.4c0.6,0,1.1-0.1,1.7-0.4c0.9-0.4,1.4-1.2,1.4-2.2V9.2c-0.2,0.1-0.5,0.2-0.8,0.3
		c-0.3,0.1-0.6,0.1-0.9,0.2l-1,0.1c-0.6,0.1-1,0.2-1.3,0.4c-0.5,0.3-0.8,0.7-0.8,1.4C71.2,12,71.4,12.4,71.7,12.7z M85.7,4.6
		c0.3,0.2,0.6,0.5,1,1V0.7h1.6v13.5h-1.5v-1.4c-0.4,0.6-0.8,1-1.4,1.3c-0.5,0.3-1.1,0.4-1.8,0.4c-1.1,0-2-0.5-2.8-1.4
		c-0.8-0.9-1.2-2.1-1.2-3.7c0-1.4,0.4-2.7,1.1-3.7c0.7-1,1.8-1.6,3.1-1.6C84.6,4.2,85.2,4.3,85.7,4.6z M82.1,12
		c0.4,0.7,1.2,1.1,2.1,1.1c0.8,0,1.4-0.3,1.9-1c0.5-0.7,0.7-1.6,0.7-2.8c0-1.2-0.3-2.2-0.8-2.7c-0.5-0.6-1.1-0.9-1.9-0.9
		c-0.8,0-1.5,0.3-2,1c-0.5,0.6-0.8,1.6-0.8,2.8C81.4,10.4,81.6,11.3,82.1,12z M96.8,4.6c0.6,0.3,1.1,0.7,1.5,1.3
		c0.3,0.5,0.5,1.1,0.7,1.7c0.1,0.5,0.1,1.2,0.1,2.2H92c0,1,0.3,1.8,0.7,2.4c0.4,0.6,1.1,0.9,2,0.9c0.9,0,1.5-0.3,2-0.9
		c0.3-0.3,0.5-0.7,0.6-1.1H99c0,0.4-0.2,0.8-0.4,1.2c-0.2,0.4-0.5,0.8-0.8,1.1c-0.5,0.5-1.1,0.8-1.8,1c-0.4,0.1-0.8,0.1-1.3,0.1
		c-1.2,0-2.2-0.4-3.1-1.3c-0.8-0.9-1.3-2.1-1.3-3.7c0-1.6,0.4-2.9,1.3-3.8c0.8-1,2-1.5,3.3-1.5C95.5,4.1,96.2,4.3,96.8,4.6z
		 M97.4,8.5c-0.1-0.7-0.2-1.3-0.5-1.7c-0.4-0.8-1.2-1.2-2.2-1.2c-0.7,0-1.4,0.3-1.9,0.8C92.3,6.9,92,7.6,92,8.5H97.4z M106.4,8.2
		c0.4,0,0.6-0.2,0.8-0.5c0.1-0.1,0.1-0.4,0.1-0.6c0-0.6-0.2-1-0.6-1.2c-0.4-0.3-1-0.4-1.7-0.4c-0.9,0-1.5,0.2-1.8,0.7
		c-0.2,0.3-0.3,0.6-0.4,1.1h-1.5c0-1.2,0.4-2.1,1.2-2.5c0.8-0.5,1.6-0.7,2.6-0.7c1.2,0,2.1,0.2,2.8,0.7c0.7,0.4,1.1,1.1,1.1,2v5.6
		c0,0.2,0,0.3,0.1,0.4c0.1,0.1,0.2,0.2,0.4,0.2c0.1,0,0.2,0,0.2,0c0.1,0,0.2,0,0.3,0v1.2c-0.3,0.1-0.5,0.1-0.6,0.1
		c-0.1,0-0.3,0-0.5,0c-0.6,0-1-0.2-1.2-0.6c-0.1-0.2-0.2-0.5-0.3-0.9c-0.3,0.4-0.8,0.8-1.4,1.1c-0.6,0.3-1.3,0.5-2.1,0.5
		c-0.9,0-1.7-0.3-2.2-0.8c-0.6-0.6-0.9-1.2-0.9-2.1c0-0.9,0.3-1.6,0.9-2.1c0.6-0.5,1.3-0.8,2.2-0.9L106.4,8.2z M103,12.7
		c0.3,0.3,0.8,0.4,1.2,0.4c0.6,0,1.1-0.1,1.7-0.4c0.9-0.4,1.4-1.2,1.4-2.2V9.2c-0.2,0.1-0.5,0.2-0.8,0.3c-0.3,0.1-0.6,0.1-0.9,0.2
		l-1,0.1c-0.6,0.1-1,0.2-1.3,0.4c-0.5,0.3-0.8,0.7-0.8,1.4C102.5,12,102.6,12.4,103,12.7z"/>
</g>
</svg>
